<svg width="299" height="90" viewBox="0 0 299 90" fill="none" xmlns="http://www.w3.org/2000/svg">
<path d="M110.194 71.9439L131.124 15.1587H140.534L161.301 71.9439H152.215L147.348 58.0721H124.147L119.28 71.9439H110.194ZM126.581 51.2579H144.914L135.747 25.38L126.581 51.2579Z" fill="black"/>
<path d="M169.03 20.4694C167.408 20.4694 166.056 19.9827 164.974 19.0092C163.947 17.9817 163.433 16.7108 163.433 15.1965C163.433 13.6822 163.947 12.4384 164.974 11.4649C166.056 10.4374 167.408 9.92358 169.03 9.92358C170.653 9.92358 171.978 10.4374 173.005 11.4649C174.087 12.4384 174.628 13.6822 174.628 15.1965C174.628 16.7108 174.087 17.9817 173.005 19.0092C171.978 19.9827 170.653 20.4694 169.03 20.4694ZM164.731 71.9439V27.1917H173.33V71.9439H164.731Z" fill="black"/>
<path d="M182.139 71.9439V13.5363H190.738V48.3375L206.151 31.7075H216.453L199.336 49.9599L218.968 71.9439H208.098L190.738 51.339V71.9439H182.139Z" fill="black"/>
<path d="M236.629 72.9174C232.681 72.9174 229.166 72.0521 226.083 70.3215C223.055 68.5368 220.675 66.0761 218.945 62.9394C217.214 59.8027 216.349 56.1522 216.349 51.988C216.349 47.7696 217.187 44.0651 218.864 40.8743C220.594 37.6835 222.974 35.1958 226.002 33.4111C229.085 31.6264 232.654 30.7341 236.71 30.7341C240.658 30.7341 244.092 31.6264 247.013 33.4111C249.933 35.1417 252.205 37.4672 253.827 40.3876C255.449 43.3079 256.261 46.5258 256.261 50.041C256.261 50.5819 256.234 51.1768 256.18 51.8257C256.18 52.4206 256.152 53.0966 256.098 53.8538H224.785C225.056 57.7476 226.327 60.7221 228.598 62.7772C230.924 64.7782 233.601 65.7787 236.629 65.7787C239.063 65.7787 241.091 65.2379 242.713 64.1562C244.39 63.0205 245.634 61.5063 246.445 59.6134H255.044C253.962 63.3991 251.799 66.5628 248.554 69.1047C245.363 71.6465 241.388 72.9174 236.629 72.9174ZM236.629 37.7917C233.763 37.7917 231.221 38.657 229.004 40.3876C226.786 42.0641 225.434 44.6059 224.948 48.013H247.662C247.499 44.8763 246.391 42.3886 244.336 40.5498C242.281 38.711 239.712 37.7917 236.629 37.7917Z" fill="black"/>
<path d="M260.451 71.9439V31.7075H268.076L268.725 38.7651C269.969 36.2774 271.781 34.3305 274.16 32.9244C276.594 31.4642 279.379 30.7341 282.516 30.7341C287.383 30.7341 291.196 32.2483 293.954 35.2769C296.766 38.3054 298.172 42.8212 298.172 48.8242V71.9439H289.655V49.7166C289.655 41.9289 286.464 38.035 280.082 38.035C276.891 38.035 274.241 39.1707 272.132 41.4421C270.077 43.7135 269.05 46.9584 269.05 51.1768V71.9439H260.451Z" fill="black"/>
<path fill-rule="evenodd" clip-rule="evenodd" d="M71.4131 0.396136H80.4419V9.426H71.4131V0.396136ZM47.5745 0.396137L56.6033 0.396137V9.426L47.5745 9.426V0.396137ZM71.4131 27.1918H80.4419V36.2216H71.4131V27.1918ZM71.4131 54.0647H80.4419V63.0945H71.4131V54.0647ZM23.7359 54.0647H32.7648V63.0945H23.7359V54.0647Z" fill="#D5ACFE"/>
<path fill-rule="evenodd" clip-rule="evenodd" d="M8.9494 15.39C8.9494 11.833 11.833 8.9494 15.39 8.9494H33.0248V0H15.39C6.89035 0 0 6.89037 0 15.39V76.4661C0 83.8788 6.00828 89.8883 13.4206 89.8902H13.4241L80.3853 90V84.3369L28.7761 24.6257L8.9494 46.8948V15.39ZM8.9494 76.4661V60.3533L28.6764 38.1962L65.6951 81.0265L13.4314 80.9408H13.4241C10.9528 80.9408 8.9494 78.9374 8.9494 76.4661Z" fill="#D5ACFE"/>
</svg>
