<svg width="446" height="184" viewBox="0 0 446 184" fill="none" xmlns="http://www.w3.org/2000/svg">
<path d="M177.801 120.387C172.176 120.387 167.261 119.109 163.057 116.552C158.852 113.995 155.585 110.444 153.256 105.898C150.926 101.296 149.761 95.955 149.761 89.8754C149.761 83.7389 150.954 78.3411 153.341 73.682C155.784 68.966 159.222 65.3012 163.653 62.6876C168.142 60.0171 173.455 58.6818 179.591 58.6818C186.58 58.6818 192.375 60.358 196.978 63.7103C201.58 67.0626 204.563 71.6933 205.927 77.6025H193.739C192.83 74.8184 191.182 72.6593 188.796 71.1251C186.409 69.5342 183.341 68.7388 179.591 68.7388C173.625 68.7388 169.023 70.6422 165.784 74.4491C162.545 78.1991 160.926 83.3696 160.926 89.9606C160.926 96.5516 162.517 101.665 165.699 105.302C168.938 108.881 173.313 110.671 178.824 110.671C184.222 110.671 188.284 109.222 191.012 106.324C193.796 103.37 195.472 99.5062 196.04 94.7334H180.955V86.5515H207.035V119.364H196.978L196.125 111.523C194.194 114.364 191.779 116.552 188.881 118.086C185.983 119.62 182.29 120.387 177.801 120.387Z" fill="black"/>
<path d="M213.123 119.364V58H224.032V119.364H213.123Z" fill="black"/>
<path d="M251.202 120.387C247.111 120.387 243.418 119.45 240.122 117.575C236.884 115.7 234.299 113.114 232.367 109.819C230.492 106.466 229.554 102.603 229.554 98.2277C229.554 93.8527 230.52 90.0174 232.452 86.7219C234.384 83.3696 236.969 80.7559 240.208 78.8809C243.503 77.0059 247.196 76.0684 251.287 76.0684C255.321 76.0684 258.958 77.0059 262.197 78.8809C265.492 80.7559 268.077 83.3696 269.952 86.7219C271.884 90.0174 272.85 93.8527 272.85 98.2277C272.85 102.603 271.884 106.466 269.952 109.819C268.077 113.114 265.492 115.7 262.197 117.575C258.901 119.45 255.236 120.387 251.202 120.387ZM251.202 110.927C254.043 110.927 256.515 109.876 258.617 107.773C260.719 105.614 261.77 102.432 261.77 98.2277C261.77 94.0231 260.719 90.8697 258.617 88.7674C256.515 86.6083 254.071 85.5287 251.287 85.5287C248.39 85.5287 245.89 86.6083 243.787 88.7674C241.742 90.8697 240.719 94.0231 240.719 98.2277C240.719 102.432 241.742 105.614 243.787 107.773C245.89 109.876 248.361 110.927 251.202 110.927Z" fill="black"/>
<path d="M295.814 120.387C292.064 120.387 288.769 119.79 285.928 118.597C283.087 117.347 280.814 115.643 279.11 113.484C277.405 111.324 276.382 108.824 276.042 105.983H287.036C287.377 107.631 288.286 109.052 289.763 110.245C291.297 111.381 293.258 111.949 295.644 111.949C298.03 111.949 299.763 111.467 300.843 110.501C301.979 109.535 302.548 108.427 302.548 107.177C302.548 105.358 301.752 104.137 300.161 103.512C298.57 102.83 296.354 102.177 293.513 101.552C291.695 101.154 289.848 100.671 287.973 100.103C286.098 99.5346 284.365 98.8243 282.775 97.972C281.24 97.0629 279.99 95.9266 279.025 94.5629C278.059 93.1424 277.576 91.4095 277.576 89.364C277.576 85.6139 279.053 82.4605 282.007 79.9037C285.019 77.3468 289.223 76.0684 294.621 76.0684C299.621 76.0684 303.599 77.2332 306.553 79.5627C309.565 81.8923 311.354 85.1026 311.923 89.1935H301.61C300.985 86.0685 298.627 84.506 294.536 84.506C292.491 84.506 290.9 84.9037 289.763 85.6992C288.684 86.4946 288.144 87.489 288.144 88.6822C288.144 89.9322 288.968 90.9265 290.616 91.6652C292.263 92.4038 294.451 93.0856 297.178 93.7106C300.133 94.3925 302.832 95.1595 305.275 96.0118C307.775 96.8073 309.763 98.0289 311.241 99.6766C312.718 101.268 313.457 103.569 313.457 106.58C313.514 109.194 312.832 111.552 311.411 113.654C309.991 115.756 307.945 117.404 305.275 118.597C302.604 119.79 299.451 120.387 295.814 120.387Z" fill="black"/>
<path d="M336.331 120.387C332.581 120.387 329.286 119.79 326.445 118.597C323.604 117.347 321.331 115.643 319.626 113.484C317.922 111.324 316.899 108.824 316.558 105.983H327.553C327.894 107.631 328.803 109.052 330.28 110.245C331.814 111.381 333.774 111.949 336.161 111.949C338.547 111.949 340.28 111.467 341.36 110.501C342.496 109.535 343.064 108.427 343.064 107.177C343.064 105.358 342.269 104.137 340.678 103.512C339.087 102.83 336.871 102.177 334.03 101.552C332.212 101.154 330.365 100.671 328.49 100.103C326.615 99.5346 324.882 98.8243 323.291 97.972C321.757 97.0629 320.507 95.9266 319.541 94.5629C318.575 93.1424 318.092 91.4095 318.092 89.364C318.092 85.6139 319.57 82.4605 322.524 79.9037C325.536 77.3468 329.74 76.0684 335.138 76.0684C340.138 76.0684 344.115 77.2332 347.07 79.5627C350.081 81.8923 351.871 85.1026 352.439 89.1935H342.127C341.502 86.0685 339.144 84.506 335.053 84.506C333.007 84.506 331.416 84.9037 330.28 85.6992C329.2 86.4946 328.661 87.489 328.661 88.6822C328.661 89.9322 329.484 90.9265 331.132 91.6652C332.78 92.4038 334.967 93.0856 337.695 93.7106C340.649 94.3925 343.348 95.1595 345.791 96.0118C348.292 96.8073 350.28 98.0289 351.757 99.6766C353.235 101.268 353.973 103.569 353.973 106.58C354.03 109.194 353.348 111.552 351.928 113.654C350.507 115.756 348.462 117.404 345.791 118.597C343.121 119.79 339.968 120.387 336.331 120.387Z" fill="black"/>
<path d="M362.413 138.115L372.214 116.552H369.657L353.208 77.0911H365.055L376.902 106.836L389.26 77.0911H400.851L374.004 138.115H362.413Z" fill="black"/>
<path d="M69.4612 112.535L112.461 69.5354L105.39 62.4644L62.3901 105.464L69.4612 112.535Z" fill="#0053EA"/>
<path d="M86.4612 69.5354L69.4612 86.5354L62.3901 79.4644L79.3901 62.4644L86.4612 69.5354Z" fill="#0053EA"/>
<path d="M95.4612 112.535L112.461 95.5354L105.39 88.4644L88.3901 105.464L95.4612 112.535Z" fill="#0053EA"/>
<path fill-rule="evenodd" clip-rule="evenodd" d="M45.9258 129V45H129.926V129H45.9258ZM55.9258 55H119.926V119H55.9258V55Z" fill="#0053EA"/>
</svg>
